<svg width="133" height="39" viewBox="0 0 133 39" fill="none" xmlns="http://www.w3.org/2000/svg">
<path d="M0.0443782 38.3616V35.4755L9.30576 22.0211C9.87926 21.1995 10.5074 20.3779 11.1935 19.5528C11.8797 18.7277 12.5693 17.9096 13.2622 17.0986L13.6139 18.661C12.5897 18.7558 11.5656 18.812 10.5381 18.826C9.51058 18.8401 8.48647 18.8506 7.46236 18.8506H0V14.8585H17.3758V17.7622L8.28165 30.9778C7.67742 31.8416 7.02199 32.6983 6.31194 33.555C5.60189 34.4117 4.8816 35.2649 4.15789 36.1181L3.80628 34.5556C4.87818 34.4608 5.95009 34.4047 7.01858 34.3906C8.08706 34.3766 9.15214 34.366 10.2172 34.366H17.4235V38.3581H0.0443782V38.3616Z" fill="#FF8057"/>
<path d="M18.632 38.3619L26.4391 14.8623H32.5735L40.5787 38.3619H35.3796L31.7133 27.0211C31.2729 25.5605 30.8257 23.9595 30.3717 22.218C29.9177 20.4765 29.4397 18.577 28.9379 16.516H29.9655C29.4739 18.5876 29.0164 20.4976 28.5931 22.2496C28.1698 24.0016 27.7465 25.5921 27.3267 27.0211L23.8003 38.3619H18.632ZM23.5101 32.9022V29.1313H35.7005V32.9022H23.5101Z" fill="#FF8057"/>
<path d="M44.7024 38.3619L38.568 14.8623H43.6749L46.3273 26.4243C46.5424 27.3933 46.7404 28.4256 46.9179 29.5245C47.0954 30.6235 47.2729 31.726 47.447 32.8355C47.6211 33.945 47.7884 35.0088 47.9523 36.0306H47.1227C47.3071 35.0123 47.4914 33.945 47.6758 32.8355C47.8601 31.726 48.0479 30.6235 48.2424 29.5245C48.437 28.4256 48.6521 27.3933 48.8876 26.4243L51.68 14.8623H56.5411L59.3165 26.4243C59.552 27.3933 59.7671 28.4256 59.9617 29.5245C60.1563 30.6235 60.3474 31.726 60.5352 32.8355C60.7229 33.945 60.9107 35.0088 61.095 36.0306H60.2348C60.4089 35.0123 60.5796 33.945 60.7468 32.8355C60.9141 31.726 61.095 30.6235 61.2828 29.5245C61.4705 28.4256 61.6685 27.3933 61.8734 26.4243L64.5258 14.8623H69.6464L63.4983 38.3619H58.1627L55.1279 26.3435C54.8002 25.0093 54.5236 23.5627 54.2915 22.0073C54.0628 20.4519 53.8034 18.8474 53.5166 17.1972H54.6807C54.3632 18.8052 54.1072 20.3782 53.9058 21.9125C53.7078 23.4469 53.4278 24.925 53.0694 26.3435L50.0483 38.3619H44.6956H44.7024Z" fill="#FF8057"/>
<path d="M67.646 38.3619L75.4531 14.8623H81.5876L89.5927 38.3619H84.3936L80.7273 27.0211C80.2869 25.5605 79.8397 23.9595 79.3857 22.218C78.9317 20.4765 78.4538 18.577 77.952 16.516H78.9795C78.4879 18.5876 78.0305 20.4976 77.6072 22.2496C77.1839 24.0016 76.7606 25.5921 76.3407 27.0211L72.8143 38.3619H67.646ZM72.5242 32.9022V29.1313H84.7145V32.9022H72.5242Z" fill="#FF8057"/>
<path d="M95.8329 14.8585V38.3581H91.1561V14.8585H95.8329ZM99.192 38.3616H93.2726V34.2151H98.9633C100.435 34.2151 101.67 33.9482 102.667 33.411C103.664 32.8738 104.412 32.0452 104.913 30.9182C105.415 29.7946 105.664 28.3516 105.664 26.596C105.664 24.8405 105.412 23.4185 104.907 22.2985C104.401 21.1784 103.654 20.3498 102.667 19.8126C101.681 19.2754 100.455 19.0086 98.994 19.0086H93.1668V14.862H99.2705C101.561 14.862 103.531 15.3325 105.183 16.2735C106.835 17.2144 108.105 18.5592 108.993 20.3112C109.88 22.0632 110.327 24.1558 110.327 26.596C110.327 29.0362 109.884 31.1499 108.993 32.9054C108.102 34.661 106.828 36.0092 105.166 36.9502C103.503 37.8911 101.513 38.3616 99.192 38.3616Z" fill="#FF8057"/>
<path d="M117.257 14.8585V38.3581H112.581V14.8585H117.257Z" fill="#FF8057"/>
<path d="M124.819 14.8585V38.3581H120.142V14.8585H124.819Z" fill="#FF8057"/>
<path d="M117.401 7.42552C117.401 7.42552 113.577 -1.68571 108.078 0.276983C102.766 2.17296 104.313 12.7237 116.445 12.3094H120.903C133.035 12.7272 134.582 2.17647 129.27 0.276983C123.767 -1.68922 119.9 7.50277 119.9 7.50277C118.732 6.81811 117.401 7.42201 117.401 7.42201V7.42552ZM110.345 8.90368C109.02 8.212 107.716 7.03579 107.337 5.50146C107.194 4.91862 107.218 4.28311 107.477 3.74592C108.136 2.39416 110.02 2.37309 111.164 3.01211C112.167 3.57388 112.932 4.53942 113.557 5.50146C114.175 6.45296 114.68 7.4817 115.117 8.53151C115.158 8.62631 115.608 9.9851 115.667 9.9851C113.854 10.0272 111.983 9.75688 110.348 8.90368H110.345ZM130.011 5.50146C129.629 7.03579 128.325 8.212 127.003 8.90368C125.372 9.75688 123.501 10.0272 121.685 9.9851C121.74 9.9851 122.194 8.62631 122.235 8.53151C122.671 7.4817 123.18 6.45647 123.795 5.50146C124.419 4.53942 125.184 3.57388 126.188 3.01211C127.328 2.37309 129.216 2.39416 129.874 3.74592C130.134 4.28311 130.158 4.91862 130.014 5.50146H130.011Z" fill="#FF8057"/>
</svg>
